{"title":"B.o.B. - Dont Let Me Fall [KingPinVideos]","uid":5966557,"size":85007906,"categoryP":"video","categoryS":"music_videos","magnet":"?xt=urn:btih:fee506523567d18370a79b2470f4450a8cb33f69&amp;dn=B.o.B.+-+Dont+Let+Me+Fall+%5BKingPinVideos%5D&amp;tr=udp%3A%2F%2Ftracker.openbittorrent.com%3A80&amp;tr=udp%3A%2F%2Fopen.demonii.com%3A1337&amp;tr=udp%3A%2F%2Ftracker.coppersurfer.tk%3A6969&amp;tr=udp%3A%2F%2Fexodus.desync.com%3A6969","seeders":1,"leechers":0,"uploader":"KingPinMan","files":5,"time":1290124718,"description":"[img]http://img696.imageshack.us/img696/151/bobdontfall.png[/img]\n\n[img]http://img822.imageshack.us/img822/4444/bobdontfall2.png[/img]\n\n[code]General\nComplete name                    : B.o.B. - Dont Let Me Fall [KingPinVideos].mpg\nFormat                           : MPEG-PS\nFile size                        : 81.1 MiB\nDuration                         : 3mn 58s\nOverall bit rate                 : 2 856 Kbps\nWriting library                  : encoded by TMPGEnc 4.0 XPress Version. 4.7.4.299\n\nVideo\nID                               : 224 (0xE0)\nFormat                           : MPEG Video\nFormat version                   : Version 1\nFormat settings, BVOP            : Yes\nFormat settings, Matrix          : Default\nDuration                         : 3mn 58s\nBit rate mode                    : Constant\nBit rate                         : 2 615 Kbps\nNominal bit rate                 : 2 700 Kbps\nWidth                            : 384 pixels\nHeight                           : 208 pixels\nDisplay aspect ratio             : 16:9\nFrame rate                       : 29.970 fps\nResolution                       : 8 bits\nScan type                        : Progressive\nBits/(Pixel*Frame)               : 1.092\nStream size                      : 74.2 MiB (92%)\nWriting library                  : TMPGEnc XPress 4.7.4.299\n\nAudio\nID                               : 192 (0xC0)\nFormat                           : MPEG Audio\nFormat version                   : Version 1\nFormat profile                   : Layer 2\nDuration                         : 3mn 58s\nBit rate mode                    : Constant\nBit rate                         : 128 Kbps\nChannel(s)                       : 2 channels\nSampling rate                    : 48.0 KHz\nStream size                      : 3.63 MiB (4%)[/code]","torrent":{"xt":"urn:btih:fee506523567d18370a79b2470f4450a8cb33f69","amp;dn":"B.o.B.+-+Dont+Let+Me+Fall+%5BKingPinVideos%5D","amp;tr":["udp%3A%2F%2Ftracker.openbittorrent.com%3A80","udp%3A%2F%2Fopen.demonii.com%3A1337","udp%3A%2F%2Ftracker.coppersurfer.tk%3A6969","udp%3A%2F%2Fexodus.desync.com%3A6969"],"infoHash":"fee506523567d18370a79b2470f4450a8cb33f69","infoHashBuffer":{"type":"Buffer","data":[254,229,6,82,53,103,209,131,112,167,155,36,112,244,69,10,140,179,63,105]},"announce":[],"urlList":[]}}